<?xml version="1.0" encoding="UTF-8" standalone="no"?>
<svg
   xmlns:dc="http://purl.org/dc/elements/1.1/"
   xmlns:cc="http://creativecommons.org/ns#"
   xmlns:rdf="http://www.w3.org/1999/02/22-rdf-syntax-ns#"
   xmlns:svg="http://www.w3.org/2000/svg"
   xmlns="http://www.w3.org/2000/svg"
   xmlns:sodipodi="http://sodipodi.sourceforge.net/DTD/sodipodi-0.dtd"
   xmlns:inkscape="http://www.inkscape.org/namespaces/inkscape"
   id="svg"
   width="400"
   height="400"
   viewBox="0, 0, 400,400"
   version="1.1"
   sodipodi:docname="1.svg"
   inkscape:version="1.0.2-2 (e86c870879, 2021-01-15)">
  <metadata
     id="metadata9">
    <rdf:RDF>
      <cc:Work
         rdf:about="">
        <dc:format>image/svg+xml</dc:format>
        <dc:type
           rdf:resource="http://purl.org/dc/dcmitype/StillImage" />
        <dc:title></dc:title>
      </cc:Work>
    </rdf:RDF>
  </metadata>
  <defs
     id="defs7" />
  <sodipodi:namedview
     pagecolor="#ffffff"
     bordercolor="#666666"
     borderopacity="1"
     objecttolerance="10"
     gridtolerance="10"
     guidetolerance="10"
     inkscape:pageopacity="0"
     inkscape:pageshadow="2"
     inkscape:window-width="1920"
     inkscape:window-height="1017"
     id="namedview5"
     showgrid="false"
     inkscape:zoom="2.125"
     inkscape:cx="121.88235"
     inkscape:cy="200"
     inkscape:window-x="-8"
     inkscape:window-y="-8"
     inkscape:window-maximized="1"
     inkscape:current-layer="svg" />
  <g
     id="svgg"
     transform="matrix(1.0114166,0,0,1.0087977,-2.9767006,-2.3486739)">
    <path
       id="path0"
       d="M 166.086,5.522 C 8.888,34.269 -51.889,227.899 60.887,340.675 185.272,465.06 398.428,376.717 398.428,200.781 398.428,77.817 286.254,-16.453 166.086,5.522 m 80.03,21.536 C 353.11,56.944 408.468,170.5 365.399,271.744 316.15,387.518 163.43,416.713 74.14,327.423 22.162,275.444 7.241,197.808 36.163,129.818 59.585,74.758 110.91,34.459 171.749,23.359 c 15.15,-2.763 59.046,-0.58 74.367,3.699 M 201.14,94.922 c -1.359,1.504 -4.653,9.554 -7.322,17.889 -5.729,17.896 -9.524,23.143 -35.781,49.464 -22.157,22.211 -50.281,40.85 -61.639,40.85 -2.745,0 -8.898,6.583 -8.898,9.519 0,22.826 47.624,0.261 88.485,-41.925 l 15.829,-16.342 1.154,31.541 c 0.635,17.348 0.646,46.446 0.026,64.664 l -1.13,33.122 -13.51,6.481 c -34.792,16.688 -44.171,23.729 -41.547,31.189 2.998,8.525 7.827,8.184 25.625,-1.805 16.782,-9.419 55.237,-28.124 71.02,-34.546 5.078,-2.066 16.628,-5.183 25.667,-6.928 20.103,-3.879 26.713,-10.388 18.694,-18.407 -5.24,-5.24 -52.38,4.907 -64.532,13.891 -1.036,0.766 -1.5,-22.088 -1.377,-67.853 0.167,-61.713 1.269,-86.288 4.577,-102.048 1.883,-8.967 -9.357,-15.382 -15.341,-8.756"
       stroke="none"
       fill="#000000"
       fill-rule="evenodd" />
  </g>
</svg>
