<?xml version="1.0" encoding="UTF-8" standalone="no"?>
<svg
   xmlns:dc="http://purl.org/dc/elements/1.1/"
   xmlns:cc="http://creativecommons.org/ns#"
   xmlns:rdf="http://www.w3.org/1999/02/22-rdf-syntax-ns#"
   xmlns:svg="http://www.w3.org/2000/svg"
   xmlns="http://www.w3.org/2000/svg"
   xmlns:sodipodi="http://sodipodi.sourceforge.net/DTD/sodipodi-0.dtd"
   xmlns:inkscape="http://www.inkscape.org/namespaces/inkscape"
   id="svg"
   width="400"
   height="400"
   viewBox="0, 0, 400,400"
   version="1.1"
   sodipodi:docname="2.svg"
   inkscape:version="1.0.2-2 (e86c870879, 2021-01-15)">
  <metadata
     id="metadata9">
    <rdf:RDF>
      <cc:Work
         rdf:about="">
        <dc:format>image/svg+xml</dc:format>
        <dc:type
           rdf:resource="http://purl.org/dc/dcmitype/StillImage" />
      </cc:Work>
    </rdf:RDF>
  </metadata>
  <defs
     id="defs7" />
  <sodipodi:namedview
     pagecolor="#ffffff"
     bordercolor="#666666"
     borderopacity="1"
     objecttolerance="10"
     gridtolerance="10"
     guidetolerance="10"
     inkscape:pageopacity="0"
     inkscape:pageshadow="2"
     inkscape:window-width="1920"
     inkscape:window-height="1017"
     id="namedview5"
     showgrid="false"
     inkscape:zoom="1.0625"
     inkscape:cx="7.7830386"
     inkscape:cy="231.34613"
     inkscape:window-x="1672"
     inkscape:window-y="-8"
     inkscape:window-maximized="1"
     inkscape:current-layer="svg" />
  <g
     id="svgg"
     transform="matrix(1.0114166,0,0,1.0087977,-2.9767006,-2.3486739)">
    <path
       id="path0"
       d="M 166.086,5.522 C 8.888,34.269 -51.889,227.899 60.887,340.675 185.272,465.06 398.428,376.717 398.428,200.781 398.428,77.817 286.254,-16.453 166.086,5.522 m 80.03,21.536 C 353.11,56.944 408.468,170.5 365.399,271.744 316.15,387.518 163.43,416.713 74.14,327.423 22.162,275.444 7.241,197.808 36.163,129.818 59.585,74.758 110.91,34.459 171.749,23.359 c 15.15,-2.763 59.046,-0.58 74.367,3.699 m -48.46,52.183 c -43.023,5.95 -77.343,36.638 -77.343,69.156 0,21.991 9.859,52.356 18.082,55.69 11.211,4.545 16.022,-4.263 9.546,-17.478 -24.615,-50.23 6.709,-89.66 71.277,-89.722 18.924,-0.019 23.685,3.579 34.071,25.742 18.116,38.659 -3.042,79.311 -65.008,124.902 -19.465,14.322 -18.766,14.04 -35.156,14.177 -23.971,0.199 -37.5,6.969 -37.5,18.768 0,13.145 16.599,15.073 44.254,5.139 l 9.098,-3.268 15.902,3.748 c 33.026,7.785 95.11,5.13 102.597,-4.388 7.973,-10.136 -3.429,-21.928 -12.907,-13.348 -3.312,2.999 -63.884,4.171 -76.578,1.482 l -5.916,-1.254 10.836,-8.372 c 60.227,-46.534 85.45,-91.154 73.471,-129.972 C 262.76,86.101 242.581,73.029 197.656,79.241"
       stroke="none"
       fill="#000000"
       fill-rule="evenodd" />
  </g>
</svg>
