<?xml version="1.0" encoding="UTF-8" standalone="no"?>
<svg
   xmlns:dc="http://purl.org/dc/elements/1.1/"
   xmlns:cc="http://creativecommons.org/ns#"
   xmlns:rdf="http://www.w3.org/1999/02/22-rdf-syntax-ns#"
   xmlns:svg="http://www.w3.org/2000/svg"
   xmlns="http://www.w3.org/2000/svg"
   xmlns:sodipodi="http://sodipodi.sourceforge.net/DTD/sodipodi-0.dtd"
   xmlns:inkscape="http://www.inkscape.org/namespaces/inkscape"
   id="svg"
   width="400"
   height="400"
   viewBox="0, 0, 400,400"
   version="1.1"
   sodipodi:docname="3.svg"
   inkscape:version="1.0.2-2 (e86c870879, 2021-01-15)">
  <metadata
     id="metadata9">
    <rdf:RDF>
      <cc:Work
         rdf:about="">
        <dc:format>image/svg+xml</dc:format>
        <dc:type
           rdf:resource="http://purl.org/dc/dcmitype/StillImage" />
      </cc:Work>
    </rdf:RDF>
  </metadata>
  <defs
     id="defs7" />
  <sodipodi:namedview
     pagecolor="#ffffff"
     bordercolor="#666666"
     borderopacity="1"
     objecttolerance="10"
     gridtolerance="10"
     guidetolerance="10"
     inkscape:pageopacity="0"
     inkscape:pageshadow="2"
     inkscape:window-width="1920"
     inkscape:window-height="1017"
     id="namedview5"
     showgrid="false"
     inkscape:zoom="1.0625"
     inkscape:cx="117.99552"
     inkscape:cy="311.78745"
     inkscape:window-x="1672"
     inkscape:window-y="-8"
     inkscape:window-maximized="1"
     inkscape:current-layer="svg" />
  <g
     id="svgg"
     transform="matrix(1.0114166,0,0,1.0087977,-2.9767006,-2.3486739)">
    <path
       id="path0"
       d="M 166.086,5.522 C 8.888,34.269 -51.889,227.899 60.887,340.675 185.272,465.06 398.428,376.717 398.428,200.781 398.428,77.817 286.254,-16.453 166.086,5.522 m 80.03,21.536 C 353.11,56.944 408.468,170.5 365.399,271.744 316.15,387.518 163.43,416.713 74.14,327.423 22.162,275.444 7.241,197.808 36.163,129.818 59.585,74.758 110.91,34.459 171.749,23.359 c 15.15,-2.763 59.046,-0.58 74.367,3.699 m -68.793,60.05 c -18.369,6.534 -34.939,20.319 -43.553,36.235 -2.481,4.584 -5.82,9.645 -7.421,11.246 -3.976,3.975 -3.653,8.562 0.924,13.138 7.345,7.346 12.991,4.452 20.533,-10.525 20.348,-40.405 78.942,-48.322 97.129,-13.124 13.877,26.856 -12.142,64.984 -44.344,64.984 -6.829,0 -14.457,2.963 -16.249,6.312 -4.574,8.546 0.502,14.001 13.03,14.001 45.593,0 66.071,56.301 27.573,75.809 -24.534,12.432 -44.592,12.001 -74.089,-1.591 -10.463,-4.822 -15.843,-4.224 -19.001,2.112 -3.19,6.397 -0.92,9.367 11.561,15.134 34.321,15.857 60.832,16.051 90.959,0.664 36.649,-18.718 39.458,-74.437 4.881,-96.842 l -7.985,-5.173 7.599,-5.117 c 34.248,-23.064 38.958,-69.994 9.668,-96.328 C 234.682,85.585 197.61,79.893 177.323,87.108"
       stroke="none"
       fill="#000000"
       fill-rule="evenodd" />
  </g>
</svg>
