<?xml version="1.0" encoding="UTF-8" standalone="no"?>
<svg
   xmlns:dc="http://purl.org/dc/elements/1.1/"
   xmlns:cc="http://creativecommons.org/ns#"
   xmlns:rdf="http://www.w3.org/1999/02/22-rdf-syntax-ns#"
   xmlns:svg="http://www.w3.org/2000/svg"
   xmlns="http://www.w3.org/2000/svg"
   xmlns:sodipodi="http://sodipodi.sourceforge.net/DTD/sodipodi-0.dtd"
   xmlns:inkscape="http://www.inkscape.org/namespaces/inkscape"
   id="svg"
   width="400"
   height="400"
   viewBox="0, 0, 400,400"
   version="1.1"
   sodipodi:docname="4.svg"
   inkscape:version="1.0.2-2 (e86c870879, 2021-01-15)">
  <metadata
     id="metadata9">
    <rdf:RDF>
      <cc:Work
         rdf:about="">
        <dc:format>image/svg+xml</dc:format>
        <dc:type
           rdf:resource="http://purl.org/dc/dcmitype/StillImage" />
      </cc:Work>
    </rdf:RDF>
  </metadata>
  <defs
     id="defs7" />
  <sodipodi:namedview
     pagecolor="#ffffff"
     bordercolor="#666666"
     borderopacity="1"
     objecttolerance="10"
     gridtolerance="10"
     guidetolerance="10"
     inkscape:pageopacity="0"
     inkscape:pageshadow="2"
     inkscape:window-width="1920"
     inkscape:window-height="1017"
     id="namedview5"
     showgrid="false"
     inkscape:zoom="1.0625"
     inkscape:cx="443.37306"
     inkscape:cy="164.98827"
     inkscape:window-x="1672"
     inkscape:window-y="-8"
     inkscape:window-maximized="1"
     inkscape:current-layer="svg" />
  <g
     id="svgg"
     transform="matrix(1.0114166,0,0,1.0087977,-2.9767006,-2.3486739)">
    <path
       id="path0"
       d="M 166.086,5.522 C 8.888,34.269 -51.889,227.899 60.887,340.675 185.272,465.06 398.428,376.717 398.428,200.781 398.428,77.817 286.254,-16.453 166.086,5.522 m 80.03,21.536 C 353.11,56.944 408.468,170.5 365.399,271.744 316.15,387.518 163.43,416.713 74.14,327.423 22.162,275.444 7.241,197.808 36.163,129.818 59.585,74.758 110.91,34.459 171.749,23.359 c 15.15,-2.763 59.046,-0.58 74.367,3.699 m -83.962,53.801 c -1.437,1.642 -2.714,7.104 -3.196,13.672 -1.613,21.964 -14.096,52.257 -41.422,100.523 -18.441,32.573 -17.821,33.105 41.122,35.239 l 40.689,1.473 0.41,45.414 c 0.45,49.838 0.664,50.945 9.824,50.945 8.803,0 9.504,-3.437 9.145,-44.875 -0.489,-56.372 -0.921,-52 5.134,-52 13.484,0 36.515,-8.933 37.969,-14.727 2.632,-10.488 -5.358,-13.461 -21.563,-8.021 -18.03,6.052 -19.346,5.767 -19.377,-4.205 -0.102,-32.603 -0.933,-35.547 -10.027,-35.547 -7.739,0 -9.741,5.148 -8.869,22.803 1.175,23.768 4.224,22.57 -50.751,19.934 l -21.128,-1.013 6.66,-11.265 c 37.026,-62.627 52.538,-121.084 32.13,-121.084 -2.397,0 -5.434,1.23 -6.75,2.734"
       stroke="none"
       fill="#000000"
       fill-rule="evenodd" />
  </g>
</svg>
