<?xml version="1.0" encoding="UTF-8" standalone="no"?>
<svg
   xmlns:dc="http://purl.org/dc/elements/1.1/"
   xmlns:cc="http://creativecommons.org/ns#"
   xmlns:rdf="http://www.w3.org/1999/02/22-rdf-syntax-ns#"
   xmlns:svg="http://www.w3.org/2000/svg"
   xmlns="http://www.w3.org/2000/svg"
   xmlns:sodipodi="http://sodipodi.sourceforge.net/DTD/sodipodi-0.dtd"
   xmlns:inkscape="http://www.inkscape.org/namespaces/inkscape"
   id="svg"
   width="400"
   height="400"
   viewBox="0, 0, 400,400"
   version="1.1"
   sodipodi:docname="5.svg"
   inkscape:version="1.0.2-2 (e86c870879, 2021-01-15)">
  <metadata
     id="metadata9">
    <rdf:RDF>
      <cc:Work
         rdf:about="">
        <dc:format>image/svg+xml</dc:format>
        <dc:type
           rdf:resource="http://purl.org/dc/dcmitype/StillImage" />
      </cc:Work>
    </rdf:RDF>
  </metadata>
  <defs
     id="defs7" />
  <sodipodi:namedview
     pagecolor="#ffffff"
     bordercolor="#666666"
     borderopacity="1"
     objecttolerance="10"
     gridtolerance="10"
     guidetolerance="10"
     inkscape:pageopacity="0"
     inkscape:pageshadow="2"
     inkscape:window-width="1920"
     inkscape:window-height="1017"
     id="namedview5"
     showgrid="false"
     inkscape:zoom="0.75130096"
     inkscape:cx="-87.786976"
     inkscape:cy="352.40411"
     inkscape:window-x="1672"
     inkscape:window-y="-8"
     inkscape:window-maximized="1"
     inkscape:current-layer="svg" />
  <g
     id="svgg"
     transform="matrix(1.0114166,0,0,1.0087977,-2.9767006,-2.3486739)">
    <path
       id="path0"
       d="M 166.086,5.522 C 8.888,34.269 -51.889,227.899 60.887,340.675 185.272,465.06 398.428,376.717 398.428,200.781 398.428,77.817 286.254,-16.453 166.086,5.522 m 80.03,21.536 C 353.11,56.944 408.468,170.5 365.399,271.744 316.15,387.518 163.43,416.713 74.14,327.423 22.162,275.444 7.241,197.808 36.163,129.818 59.585,74.758 110.91,34.459 171.749,23.359 c 15.15,-2.763 59.046,-0.58 74.367,3.699 m 17.379,85.634 c -1.601,0.948 -14.257,2.343 -28.125,3.1 -13.868,0.756 -34.743,2.083 -46.389,2.948 -27.869,2.07 -44.904,2 -59.652,-0.245 -19.958,-3.038 -26.044,2.982 -17.815,17.621 6.612,11.762 8.75,19.435 11.807,42.383 4.174,31.327 6.808,34.077 28.643,29.912 19.853,-3.787 55.302,-2.462 66.786,2.496 31.708,13.688 41.001,22.899 41.944,41.571 2.224,44.038 -67.262,57.733 -117.23,23.105 -12.073,-8.366 -21.598,4.816 -10.781,14.921 6.081,5.681 35.332,18.539 48.567,21.348 60.674,12.881 112.146,-27.587 96.19,-75.625 -11.352,-34.178 -70.681,-56.803 -123.4,-47.057 -11.084,2.049 -9.865,3.664 -12.571,-16.649 -1.25,-9.379 -3.349,-20.568 -4.666,-24.865 -1.317,-4.297 -2.402,-7.988 -2.411,-8.203 -0.009,-0.215 7.19,-0.383 15.999,-0.375 8.808,0.009 26.211,-0.703 38.672,-1.581 12.46,-0.879 34.327,-2.239 48.593,-3.022 28.377,-1.558 36.152,-3.586 39.174,-10.22 3.453,-7.578 -6.09,-15.852 -13.335,-11.563"
       stroke="none"
       fill="#000000"
       fill-rule="evenodd" />
  </g>
</svg>
