<?xml version="1.0" encoding="UTF-8" standalone="no"?>
<svg
   xmlns:dc="http://purl.org/dc/elements/1.1/"
   xmlns:cc="http://creativecommons.org/ns#"
   xmlns:rdf="http://www.w3.org/1999/02/22-rdf-syntax-ns#"
   xmlns:svg="http://www.w3.org/2000/svg"
   xmlns="http://www.w3.org/2000/svg"
   xmlns:sodipodi="http://sodipodi.sourceforge.net/DTD/sodipodi-0.dtd"
   xmlns:inkscape="http://www.inkscape.org/namespaces/inkscape"
   id="svg"
   width="400"
   height="400"
   viewBox="0, 0, 400,400"
   version="1.1"
   sodipodi:docname="6.svg"
   inkscape:version="1.0.2-2 (e86c870879, 2021-01-15)">
  <metadata
     id="metadata9">
    <rdf:RDF>
      <cc:Work
         rdf:about="">
        <dc:format>image/svg+xml</dc:format>
        <dc:type
           rdf:resource="http://purl.org/dc/dcmitype/StillImage" />
      </cc:Work>
    </rdf:RDF>
  </metadata>
  <defs
     id="defs7" />
  <sodipodi:namedview
     pagecolor="#ffffff"
     bordercolor="#666666"
     borderopacity="1"
     objecttolerance="10"
     gridtolerance="10"
     guidetolerance="10"
     inkscape:pageopacity="0"
     inkscape:pageshadow="2"
     inkscape:window-width="1920"
     inkscape:window-height="1017"
     id="namedview5"
     showgrid="false"
     inkscape:zoom="1.0625"
     inkscape:cx="199.31646"
     inkscape:cy="318.36561"
     inkscape:window-x="1672"
     inkscape:window-y="-8"
     inkscape:window-maximized="1"
     inkscape:current-layer="svg" />
  <g
     id="svgg"
     transform="matrix(1.0114166,0,0,1.0087977,-2.9767006,-2.3486739)">
    <path
       id="path0"
       d="M 166.086,5.522 C 8.888,34.269 -51.889,227.899 60.887,340.675 185.272,465.06 398.428,376.717 398.428,200.781 398.428,77.817 286.254,-16.453 166.086,5.522 m 80.03,21.536 C 353.11,56.944 408.468,170.5 365.399,271.744 316.15,387.518 163.43,416.713 74.14,327.423 22.162,275.444 7.241,197.808 36.163,129.818 59.585,74.758 110.91,34.459 171.749,23.359 c 15.15,-2.763 59.046,-0.58 74.367,3.699 m -7.683,62.261 c -50.74,6.325 -106.352,39.908 -125.445,75.754 -48.176,90.443 31.734,192.612 109.52,140.027 26.518,-17.927 35.76,-37.653 26.268,-56.066 -20.869,-40.485 -83.731,-53.449 -121.128,-24.98 -11.701,8.908 -11.058,9.359 -9.989,-7.014 1.543,-23.625 10.067,-45.244 23.907,-60.638 20.323,-22.604 71.213,-46.365 105.309,-49.171 10.183,-0.838 15.625,-4.173 15.625,-9.575 0,-7.34 -8.487,-10.28 -24.067,-8.337 m -32.418,144.726 c 36.986,18.185 33.965,44.651 -7.22,63.246 -26.334,11.89 -61.022,-6.017 -74.598,-38.508 l -2.382,-5.701 5.541,-4.865 c 25.888,-22.729 51.769,-27.392 78.659,-14.172"
       stroke="none"
       fill="#000000"
       fill-rule="evenodd" />
  </g>
</svg>
