<?xml version="1.0" encoding="UTF-8" standalone="no"?>
<svg
   xmlns:dc="http://purl.org/dc/elements/1.1/"
   xmlns:cc="http://creativecommons.org/ns#"
   xmlns:rdf="http://www.w3.org/1999/02/22-rdf-syntax-ns#"
   xmlns:svg="http://www.w3.org/2000/svg"
   xmlns="http://www.w3.org/2000/svg"
   xmlns:sodipodi="http://sodipodi.sourceforge.net/DTD/sodipodi-0.dtd"
   xmlns:inkscape="http://www.inkscape.org/namespaces/inkscape"
   id="svg"
   width="400"
   height="400"
   viewBox="0, 0, 400,400"
   version="1.1"
   sodipodi:docname="7.svg"
   inkscape:version="1.0.2-2 (e86c870879, 2021-01-15)">
  <metadata
     id="metadata9">
    <rdf:RDF>
      <cc:Work
         rdf:about="">
        <dc:format>image/svg+xml</dc:format>
        <dc:type
           rdf:resource="http://purl.org/dc/dcmitype/StillImage" />
      </cc:Work>
    </rdf:RDF>
  </metadata>
  <defs
     id="defs7" />
  <sodipodi:namedview
     pagecolor="#ffffff"
     bordercolor="#666666"
     borderopacity="1"
     objecttolerance="10"
     gridtolerance="10"
     guidetolerance="10"
     inkscape:pageopacity="0"
     inkscape:pageshadow="2"
     inkscape:window-width="1920"
     inkscape:window-height="1017"
     id="namedview5"
     showgrid="false"
     inkscape:zoom="1.5026019"
     inkscape:cx="173.88018"
     inkscape:cy="250.87517"
     inkscape:window-x="1672"
     inkscape:window-y="-8"
     inkscape:window-maximized="1"
     inkscape:current-layer="svg" />
  <g
     id="svgg"
     transform="matrix(1.0114166,0,0,1.0087977,-2.9767006,-2.3486739)">
    <path
       id="path0"
       d="M 166.086,5.522 C 8.888,34.269 -51.889,227.899 60.887,340.675 185.272,465.06 398.428,376.717 398.428,200.781 398.428,77.817 286.254,-16.453 166.086,5.522 m 80.03,21.536 C 353.11,56.944 408.468,170.5 365.399,271.744 316.15,387.518 163.43,416.713 74.14,327.423 22.162,275.444 7.241,197.808 36.163,129.818 59.585,74.758 110.91,34.459 171.749,23.359 c 15.15,-2.763 59.046,-0.58 74.367,3.699 m -147.723,87.84 c -9.208,11.095 7.053,24.345 40.344,32.876 24.343,6.237 87.092,8.968 104.126,4.532 11.756,-3.062 11.95,-4.491 -2.454,18.022 -6.868,10.734 -15.737,25.215 -19.709,32.18 l -7.221,12.664 -29.786,1.05 c -35.69,1.257 -42.536,4.765 -31.275,16.026 l 3.981,3.98 23.611,-1.139 c 22.762,-1.097 23.567,-1.032 22.349,1.808 -14.082,32.864 -21.807,68.175 -16.539,75.603 7.333,10.34 16.244,3.461 17.846,-13.776 1.27,-13.663 7.336,-34.797 14.785,-51.51 l 5.768,-12.941 22.427,0.393 c 24.225,0.424 26.83,-0.432 26.768,-8.793 -0.057,-7.616 -6.734,-10.149 -26.921,-10.211 l -12.1,-0.037 12.683,-20.703 c 14.515,-23.694 30.707,-47.579 38.324,-56.531 13.258,-15.582 2.846,-23.525 -18.521,-14.13 -27.318,12.011 -37.436,13.183 -86.758,10.054 -34.668,-2.2 -61.961,-9.723 -67.244,-18.535 -2.379,-3.969 -11.463,-4.522 -14.484,-0.882"
       stroke="none"
       fill="#000000"
       fill-rule="evenodd" />
  </g>
</svg>
