<?xml version="1.0" encoding="UTF-8" standalone="no"?>
<svg
   xmlns:dc="http://purl.org/dc/elements/1.1/"
   xmlns:cc="http://creativecommons.org/ns#"
   xmlns:rdf="http://www.w3.org/1999/02/22-rdf-syntax-ns#"
   xmlns:svg="http://www.w3.org/2000/svg"
   xmlns="http://www.w3.org/2000/svg"
   xmlns:sodipodi="http://sodipodi.sourceforge.net/DTD/sodipodi-0.dtd"
   xmlns:inkscape="http://www.inkscape.org/namespaces/inkscape"
   id="svg"
   width="400"
   height="400"
   viewBox="0, 0, 400,400"
   version="1.1"
   sodipodi:docname="8.svg"
   inkscape:version="1.0.2-2 (e86c870879, 2021-01-15)">
  <metadata
     id="metadata9">
    <rdf:RDF>
      <cc:Work
         rdf:about="">
        <dc:format>image/svg+xml</dc:format>
        <dc:type
           rdf:resource="http://purl.org/dc/dcmitype/StillImage" />
      </cc:Work>
    </rdf:RDF>
  </metadata>
  <defs
     id="defs7" />
  <sodipodi:namedview
     pagecolor="#ffffff"
     bordercolor="#666666"
     borderopacity="1"
     objecttolerance="10"
     gridtolerance="10"
     guidetolerance="10"
     inkscape:pageopacity="0"
     inkscape:pageshadow="2"
     inkscape:window-width="1920"
     inkscape:window-height="1017"
     id="namedview5"
     showgrid="false"
     inkscape:zoom="1.0625"
     inkscape:cx="201.79744"
     inkscape:cy="349.82911"
     inkscape:window-x="1672"
     inkscape:window-y="-8"
     inkscape:window-maximized="1"
     inkscape:current-layer="svg" />
  <g
     id="svgg"
     transform="matrix(1.0114166,0,0,1.0087977,-2.9767006,-2.3486739)">
    <path
       id="path0"
       d="M 166.086,5.522 C 8.888,34.269 -51.889,227.899 60.887,340.675 185.272,465.06 398.428,376.717 398.428,200.781 398.428,77.817 286.254,-16.453 166.086,5.522 m 80.03,21.536 C 353.11,56.944 408.468,170.5 365.399,271.744 316.15,387.518 163.43,416.713 74.14,327.423 22.162,275.444 7.241,197.808 36.163,129.818 59.585,74.758 110.91,34.459 171.749,23.359 c 15.15,-2.763 59.046,-0.58 74.367,3.699 m -50.803,60.347 c -29.057,5.89 -55.366,45.44 -49.996,75.158 4.228,23.397 13.567,41.778 25.105,49.414 7.431,4.917 7.586,3.725 -1.281,9.837 -53.408,36.808 -9.995,113.287 56.468,99.477 65.24,-13.557 72.207,-64.922 12.837,-94.646 -22.364,-11.197 -22.132,-10.375 -5.997,-21.263 29.658,-20.012 40.207,-35.363 40.207,-58.507 0,-35.709 -40.591,-66.92 -77.343,-59.47 m 30.356,22.499 c 46.096,21.103 37.545,57.112 -21.6,90.969 l -7.65,4.379 -8.477,-4.438 c -21.054,-11.023 -30.8,-44.314 -19.451,-66.439 13.684,-26.677 33.673,-35.232 57.178,-24.471 m -12.388,124.508 c 0.86,0.661 8.818,4.91 17.685,9.443 33.241,16.991 38.69,34.699 15.19,49.36 -25.439,15.87 -53.133,13.746 -72.452,-5.557 -18.764,-18.749 -13.359,-39.957 14.134,-55.451 l 9.411,-5.303 7.235,3.153 c 3.979,1.735 7.938,3.694 8.797,4.355"
       stroke="none"
       fill="#000000"
       fill-rule="evenodd" />
  </g>
</svg>
