<?xml version="1.0" encoding="UTF-8" standalone="no"?>
<svg
   xmlns:dc="http://purl.org/dc/elements/1.1/"
   xmlns:cc="http://creativecommons.org/ns#"
   xmlns:rdf="http://www.w3.org/1999/02/22-rdf-syntax-ns#"
   xmlns:svg="http://www.w3.org/2000/svg"
   xmlns="http://www.w3.org/2000/svg"
   version="1.0"
   width="225.000000pt"
   height="225.000000pt"
   viewBox="0 0 225.000000 225.000000"
   preserveAspectRatio="xMidYMid meet"
   id="svg8">
  <defs
     id="defs12" />
  <metadata
     id="metadata2">
Created by potrace 1.16, written by Peter Selinger 2001-2019
<rdf:RDF>
  <cc:Work
     rdf:about="">
    <dc:format>image/svg+xml</dc:format>
    <dc:type
       rdf:resource="http://purl.org/dc/dcmitype/StillImage" />
  </cc:Work>
</rdf:RDF>
</metadata>
  <g
     transform="translate(0.000000,225.000000) scale(0.100000,-0.100000)"
     fill="#ffffff"
     stroke="none"
     id="g6">
    <path
       d="M985 2240 c-174 -22 -388 -111 -533 -220 -197 -148 -341 -361 -409 -606 -26 -93 -28 -111 -27 -289 1 -208 9 -254 73 -422 174 -450 666 -747 1151 -694 261 28 473 127 660 307 150 144 255 324 306 521 36 136 43 330 19 473 -88 530 -521 915 -1048 934 -67 3 -153 1 -192 -4z m321 -475 c65 -32 116 -90 146 -164 17 -44 22 -77 22 -156 1 -134 -14 -166 -146 -303 -105 -109 -168 -205 -168 -255 0 -15 5 -38 12 -52 16 -35 2 -45 -51 -35 -56 10 -92 38 -110 83 -12 33 -11 43 9 106 13 41 48 109 86 166 93 141 113 227 75 311 -47 104 -163 122 -229 36 -25 -33 -27 -43 -27 -129 0 -103 -5 -112 -58 -89 -176 74 -94 432 113 494 61 19 83 21 178 17 76 -3 104 -8 148 -30z m-113 -1104 c82 -53 84 -156 6 -212 -96 -68 -235 26 -200 134 11 34 53 80 81 90 32 12 86 6 113 -12z"
       id="path4" />
  </g>
</svg>
