<?xml version="1.0" encoding="UTF-8" standalone="no"?>
<svg
   xmlns:dc="http://purl.org/dc/elements/1.1/"
   xmlns:cc="http://creativecommons.org/ns#"
   xmlns:rdf="http://www.w3.org/1999/02/22-rdf-syntax-ns#"
   xmlns:svg="http://www.w3.org/2000/svg"
   xmlns="http://www.w3.org/2000/svg"
   xmlns:sodipodi="http://sodipodi.sourceforge.net/DTD/sodipodi-0.dtd"
   xmlns:inkscape="http://www.inkscape.org/namespaces/inkscape"
   width="400"
   height="400"
   viewBox="0 0 105.83333 105.83333"
   version="1.1"
   id="svg16"
   inkscape:version="1.0.2-2 (e86c870879, 2021-01-15)"
   sodipodi:docname="undo.svg">
  <defs
     id="defs10">
    <inkscape:path-effect
       effect="powerstroke"
       id="path-effect120"
       is_visible="true"
       lpeversion="1"
       offset_points="0.96804408,2.657645"
       sort_points="true"
       interpolator_type="CentripetalCatmullRom"
       interpolator_beta="0.75"
       start_linecap_type="round"
       linejoin_type="spiro"
       miter_limit="4"
       scale_width="1"
       end_linecap_type="round" />
    <inkscape:path-effect
       effect="simplify"
       id="path-effect118"
       is_visible="true"
       lpeversion="1"
       steps="1"
       threshold="0.0040133779"
       smooth_angles="0"
       helper_size="0"
       simplify_individual_paths="false"
       simplify_just_coalesce="false"
       step="1" />
    <inkscape:path-effect
       effect="powerstroke"
       id="path-effect113"
       is_visible="true"
       lpeversion="1"
       offset_points="0.63070791,2.657645"
       sort_points="true"
       interpolator_type="CentripetalCatmullRom"
       interpolator_beta="0.75"
       start_linecap_type="round"
       linejoin_type="spiro"
       miter_limit="4"
       scale_width="1"
       end_linecap_type="round" />
    <inkscape:path-effect
       effect="simplify"
       id="path-effect111"
       is_visible="true"
       lpeversion="1"
       steps="1"
       threshold="0.0040133779"
       smooth_angles="0"
       helper_size="0"
       simplify_individual_paths="false"
       simplify_just_coalesce="false"
       step="1" />
    <inkscape:path-effect
       effect="powerstroke"
       id="path-effect106"
       is_visible="true"
       lpeversion="1"
       offset_points="1.0521142,2.657645"
       sort_points="true"
       interpolator_type="CentripetalCatmullRom"
       interpolator_beta="0.75"
       start_linecap_type="round"
       linejoin_type="spiro"
       miter_limit="4"
       scale_width="1"
       end_linecap_type="round" />
    <inkscape:path-effect
       effect="simplify"
       id="path-effect104"
       is_visible="true"
       lpeversion="1"
       steps="1"
       threshold="0.0040133779"
       smooth_angles="0"
       helper_size="0"
       simplify_individual_paths="false"
       simplify_just_coalesce="false"
       step="1" />
    <inkscape:path-effect
       effect="powerstroke"
       id="path-effect99"
       is_visible="true"
       lpeversion="1"
       offset_points="1.358401,3.5435267"
       sort_points="true"
       interpolator_type="CentripetalCatmullRom"
       interpolator_beta="0.75"
       start_linecap_type="round"
       linejoin_type="spiro"
       miter_limit="4"
       scale_width="1"
       end_linecap_type="round" />
    <inkscape:path-effect
       effect="simplify"
       id="path-effect97"
       is_visible="true"
       lpeversion="1"
       steps="1"
       threshold="0.0040133779"
       smooth_angles="0"
       helper_size="0"
       simplify_individual_paths="false"
       simplify_just_coalesce="false"
       step="1" />
    <inkscape:path-effect
       effect="powerstroke"
       id="path-effect88"
       is_visible="true"
       lpeversion="1"
       offset_points="1.5948376,3.5435267"
       sort_points="true"
       interpolator_type="CentripetalCatmullRom"
       interpolator_beta="0.75"
       start_linecap_type="round"
       linejoin_type="spiro"
       miter_limit="4"
       scale_width="1"
       end_linecap_type="round" />
    <inkscape:path-effect
       effect="simplify"
       id="path-effect86"
       is_visible="true"
       lpeversion="1"
       steps="1"
       threshold="0.0040133779"
       smooth_angles="0"
       helper_size="0"
       simplify_individual_paths="false"
       simplify_just_coalesce="false"
       step="1" />
    <inkscape:path-effect
       effect="powerstroke"
       id="path-effect81"
       is_visible="true"
       lpeversion="1"
       offset_points="1.2466982,3.5233142"
       sort_points="true"
       interpolator_type="CentripetalCatmullRom"
       interpolator_beta="0.75"
       start_linecap_type="round"
       linejoin_type="spiro"
       miter_limit="4"
       scale_width="1"
       end_linecap_type="round" />
    <inkscape:path-effect
       effect="simplify"
       id="path-effect79"
       is_visible="true"
       lpeversion="1"
       steps="1"
       threshold="0.0040133779"
       smooth_angles="0"
       helper_size="0"
       simplify_individual_paths="false"
       simplify_just_coalesce="false"
       step="1" />
    <inkscape:path-effect
       effect="powerstroke"
       id="path-effect74"
       is_visible="true"
       lpeversion="1"
       offset_points="2.2733449,3.5435267"
       sort_points="true"
       interpolator_type="CentripetalCatmullRom"
       interpolator_beta="0.75"
       start_linecap_type="round"
       linejoin_type="spiro"
       miter_limit="4"
       scale_width="1"
       end_linecap_type="round" />
    <inkscape:path-effect
       effect="simplify"
       id="path-effect72"
       is_visible="true"
       lpeversion="1"
       steps="1"
       threshold="0.0032025118"
       smooth_angles="0"
       helper_size="0"
       simplify_individual_paths="false"
       simplify_just_coalesce="false"
       step="1" />
    <inkscape:path-effect
       effect="powerstroke"
       id="path-effect67"
       is_visible="true"
       lpeversion="1"
       offset_points="1.032042,3.5435267"
       sort_points="true"
       interpolator_type="CentripetalCatmullRom"
       interpolator_beta="0.75"
       start_linecap_type="round"
       linejoin_type="spiro"
       miter_limit="4"
       scale_width="1"
       end_linecap_type="round" />
    <inkscape:path-effect
       effect="simplify"
       id="path-effect65"
       is_visible="true"
       lpeversion="1"
       steps="1"
       threshold="0.0032025118"
       smooth_angles="0"
       helper_size="0"
       simplify_individual_paths="false"
       simplify_just_coalesce="false"
       step="1" />
    <inkscape:path-effect
       effect="powerstroke"
       id="path-effect60"
       is_visible="true"
       lpeversion="1"
       offset_points="1.9477105,3.5435267"
       sort_points="true"
       interpolator_type="CentripetalCatmullRom"
       interpolator_beta="0.75"
       start_linecap_type="round"
       linejoin_type="spiro"
       miter_limit="4"
       scale_width="1"
       end_linecap_type="round" />
    <inkscape:path-effect
       effect="simplify"
       id="path-effect58"
       is_visible="true"
       lpeversion="1"
       steps="1"
       threshold="0.0032025118"
       smooth_angles="0"
       helper_size="0"
       simplify_individual_paths="false"
       simplify_just_coalesce="false"
       step="1" />
    <inkscape:path-effect
       effect="powerstroke"
       id="path-effect53"
       is_visible="true"
       lpeversion="1"
       offset_points="1.2978015,3.5435267"
       sort_points="true"
       interpolator_type="CentripetalCatmullRom"
       interpolator_beta="0.75"
       start_linecap_type="round"
       linejoin_type="spiro"
       miter_limit="4"
       scale_width="1"
       end_linecap_type="round" />
    <inkscape:path-effect
       effect="simplify"
       id="path-effect51"
       is_visible="true"
       lpeversion="1"
       steps="1"
       threshold="0.0032025118"
       smooth_angles="0"
       helper_size="0"
       simplify_individual_paths="false"
       simplify_just_coalesce="false"
       step="1" />
    <inkscape:path-effect
       effect="powerstroke"
       id="path-effect46"
       is_visible="true"
       lpeversion="1"
       offset_points="1.4640602,3.5435267"
       sort_points="true"
       interpolator_type="CentripetalCatmullRom"
       interpolator_beta="0.75"
       start_linecap_type="round"
       linejoin_type="spiro"
       miter_limit="4"
       scale_width="1"
       end_linecap_type="round" />
    <inkscape:path-effect
       effect="simplify"
       id="path-effect44"
       is_visible="true"
       lpeversion="1"
       steps="1"
       threshold="0.0032025118"
       smooth_angles="0"
       helper_size="0"
       simplify_individual_paths="false"
       simplify_just_coalesce="false"
       step="1" />
    <inkscape:path-effect
       effect="powerstroke"
       id="path-effect39"
       is_visible="true"
       lpeversion="1"
       offset_points="2.1290289,14.174107"
       sort_points="true"
       interpolator_type="CentripetalCatmullRom"
       interpolator_beta="0.75"
       start_linecap_type="round"
       linejoin_type="spiro"
       miter_limit="4"
       scale_width="1"
       end_linecap_type="round" />
    <inkscape:path-effect
       effect="simplify"
       id="path-effect37"
       is_visible="true"
       lpeversion="1"
       steps="1"
       threshold="0.0032025118"
       smooth_angles="0"
       helper_size="0"
       simplify_individual_paths="false"
       simplify_just_coalesce="false"
       step="1" />
    <inkscape:path-effect
       effect="powerstroke"
       id="path-effect32"
       is_visible="true"
       lpeversion="1"
       offset_points="1.241024,14.174107"
       sort_points="true"
       interpolator_type="CentripetalCatmullRom"
       interpolator_beta="0.75"
       start_linecap_type="round"
       linejoin_type="spiro"
       miter_limit="4"
       scale_width="1"
       end_linecap_type="round" />
    <inkscape:path-effect
       effect="simplify"
       id="path-effect30"
       is_visible="true"
       lpeversion="1"
       steps="1"
       threshold="0.0032025118"
       smooth_angles="0"
       helper_size="0"
       simplify_individual_paths="false"
       simplify_just_coalesce="false"
       step="1" />
    <inkscape:path-effect
       effect="powerstroke"
       id="path-effect25"
       is_visible="true"
       lpeversion="1"
       offset_points="2.0277832,14.174107"
       sort_points="true"
       interpolator_type="CentripetalCatmullRom"
       interpolator_beta="0.75"
       start_linecap_type="round"
       linejoin_type="spiro"
       miter_limit="4"
       scale_width="1"
       end_linecap_type="round" />
    <inkscape:path-effect
       effect="simplify"
       id="path-effect23"
       is_visible="true"
       lpeversion="1"
       steps="1"
       threshold="0.0032025118"
       smooth_angles="0"
       helper_size="0"
       simplify_individual_paths="false"
       simplify_just_coalesce="false"
       step="1" />
  </defs>
  <sodipodi:namedview
     id="base"
     pagecolor="#ffffff"
     bordercolor="#666666"
     borderopacity="1.0"
     inkscape:pageopacity="0.0"
     inkscape:pageshadow="2"
     inkscape:zoom="1.4"
     inkscape:cx="271.4334"
     inkscape:cy="217.14286"
     inkscape:document-units="mm"
     inkscape:current-layer="layer1"
     inkscape:document-rotation="0"
     showgrid="false"
     units="px"
     inkscape:window-width="1540"
     inkscape:window-height="1040"
     inkscape:window-x="2172"
     inkscape:window-y="14"
     inkscape:window-maximized="0" />
  <metadata
     id="metadata13">
    <rdf:RDF>
      <cc:Work
         rdf:about="">
        <dc:format>image/svg+xml</dc:format>
        <dc:type
           rdf:resource="http://purl.org/dc/dcmitype/StillImage" />
        <dc:title></dc:title>
      </cc:Work>
    </rdf:RDF>
  </metadata>
  <g
     inkscape:label="Calque 1"
     inkscape:groupmode="layer"
     id="layer1">
    <path
       d="m 12.672206,78.478719 c 2.570617,2.839365 6.764652,6.599243 13.566992,9.803 4.369844,2.058103 9.498784,3.741753 15.532393,4.946022 0.0142,0.0028 0.02842,0.0056 0.04265,0.0082 1.111642,0.207662 2.326045,0.429666 3.569163,0.642658 2.617134,0.448411 6.836657,1.122573 11.249875,1.344746 0.03267,0.0016 0.06535,0.0028 0.09805,0.0036 1.285609,0.02887 2.552283,-0.09277 3.812295,-0.329767 1.173185,-0.220666 2.313283,-0.53598 3.435532,-0.90403 2.066027,-0.677568 4.046486,-1.528918 5.913643,-2.200406 0.03121,-0.01122 0.06225,-0.02289 0.09313,-0.03498 1.99682,-0.78246 4.238647,-1.705383 6.418893,-2.837433 2.060809,-1.070035 4.189508,-2.387622 6.171395,-4.093388 5.297153,-4.34511 9.719556,-10.081209 12.595996,-16.633839 2.786118,-6.346873 4.138133,-13.516337 3.274473,-20.785621 -7.72e-4,-0.0065 -0.0016,-0.01301 -0.0024,-0.01951 -0.587686,-4.721535 -2.242853,-9.067419 -4.428424,-13.067742 -2.146507,-3.928825 -4.813375,-7.540061 -7.492806,-10.858647 -2.021815,-2.510804 -4.450435,-4.57704 -7.093808,-6.238969 -2.608941,-1.64028 -5.429339,-2.888494 -8.292893,-3.79361 -4.424767,-1.642765 -9.000081,-2.479148 -13.537829,-2.737459 -4.619989,-0.262993 -9.219119,0.07203 -13.617723,0.77567 -0.01658,0.0027 -0.03315,0.0054 -0.0497,0.0083 -3.679754,0.64275 -7.412481,1.300953 -11.117089,2.205472 -3.809284,0.930077 -7.546991,2.11094 -11.13172,3.776452 -3.035087,1.391881 -5.777755,3.33938 -8.010084,5.690885 -2.361911,2.488004 -4.1451861,5.418319 -5.1516817,8.644454 -0.00255,0.0082 -0.00506,0.01633 -0.00755,0.02451 -0.5169643,1.700454 -1.0097385,3.517861 -1.243619,5.416464 -0.1250466,1.01511 -0.174918,2.044648 -0.1177827,3.083122 0.058006,1.054302 0.2252652,2.096759 0.5216332,3.121186 0.2920091,1.327582 0.6672325,2.825056 0.8276324,3.473225 a 3.5233142,3.5233142 90 0 0 6.8402923,-1.69274 c -0.176779,-0.714359 -0.541156,-2.169704 -0.810231,-3.40584 -0.01959,-0.08997 -0.04269,-0.17915 -0.06926,-0.267314 -0.14859,-0.493026 -0.24167,-1.026569 -0.274079,-1.615626 -0.03076,-0.559055 -0.0068,-1.166057 0.07556,-1.834478 0.157833,-1.281255 0.506334,-2.630391 0.98791,-4.215525 0.661072,-2.112242 1.85496,-4.113633 3.531713,-5.879901 1.595171,-1.680331 3.595724,-3.110405 5.843579,-4.140253 0.0059,-0.0027 0.01182,-0.0054 0.01771,-0.0082 3.048648,-1.417207 6.323357,-2.465943 9.841381,-3.324905 3.435454,-0.838802 6.937003,-1.459455 10.633048,-2.10509 3.988252,-0.636507 8.063761,-0.923264 12.079571,-0.694664 3.971905,0.226101 7.869059,0.955935 11.559667,2.335811 0.05946,0.02223 0.119506,0.04285 0.180077,0.06184 2.390765,0.749384 4.678802,1.767301 6.74083,3.063729 2.063516,1.297364 3.880479,2.860541 5.358909,4.696535 2.567993,3.18057 4.939008,6.417998 6.794456,9.814087 1.876665,3.434923 3.165848,6.926032 3.618426,10.549878 0.69496,5.866121 -0.387787,11.775149 -2.730545,17.112033 -2.429934,5.535475 -6.178474,10.388715 -10.64251,14.042481 -0.02414,0.01976 -0.04801,0.03983 -0.07161,0.06022 -1.461741,1.262692 -3.106346,2.298685 -4.848138,3.203077 -1.828695,0.949514 -3.776526,1.759252 -5.697209,2.512591 -2.139819,0.771429 -4.010314,1.571688 -5.677179,2.118349 -0.915979,0.300402 -1.749146,0.525413 -2.542186,0.674577 -0.827073,0.155565 -1.586332,0.223699 -2.30561,0.211027 -3.956764,-0.202826 -7.812953,-0.81305 -10.362036,-1.249802 -1.186982,-0.203374 -2.355822,-0.416867 -3.443674,-0.620021 -5.54077,-1.10744 -10.107231,-2.625748 -13.888065,-4.40644 -5.837007,-2.749106 -9.30101,-5.898989 -11.345663,-8.157402 a 3.5233142,3.5233142 90 0 0 -5.2238,4.729364 z"
       id="path-1"
       inkscape:path-effect="#path-effect79;#path-effect81"
       inkscape:original-d="m 15.284106,76.114037 c 8.901856,9.776197 22.274296,13.281225 34.938752,14.93006 2.909091,0.378746 5.863877,0.872249 8.781398,0.566964 C 62.40317,91.255404 73.348264,86.70661 75.632859,85.374454 87.914939,78.212727 96.345671,63.289602 95.064036,48.899752 94.375896,41.173507 90.727764,34.973893 86.282639,28.867014 80.801831,21.337277 76.59838,18.679162 67.0383,15.826835 57.376519,12.944165 47.344194,14.161311 37.704696,16.204811 23.897528,19.131826 11.958557,23.125127 10.61315,39.261359 c -0.09824,1.178246 0.789649,4.706843 1.307869,6.803571"
       style="fill:#000000;fill-rule:nonzero;stroke:none;stroke-width:0.994296px;stroke-linecap:butt;stroke-linejoin:miter;stroke-opacity:1" />
    <path
       d="m 1.6306113,44.090717 c 0.1119498,0.08295 0.3265737,0.254489 0.6683978,0.659347 0.2472781,0.292877 0.440872,0.555741 0.8095316,1.04236 0.015503,0.02046 0.031435,0.04147 0.047713,0.06288 1.2407798,1.699106 2.8331005,4.409723 5.1387729,7.623705 0.024267,0.03383 0.049326,0.06708 0.075156,0.09973 0.097093,0.122731 0.2593568,0.356922 0.5321758,0.684781 0.2444849,0.293808 0.6305283,0.71613 1.1811455,1.072762 0.180567,0.116953 0.374729,0.211575 0.578102,0.281731 0.548008,0.189042 1.089604,0.217072 1.57752,0.144059 0.464164,-0.06946 0.841483,-0.223899 1.109712,-0.359873 0.267299,-0.135503 0.484083,-0.282803 0.62382,-0.382528 0.149955,-0.107018 0.25054,-0.18579 0.294413,-0.218223 0.04856,-0.0359 0.09589,-0.07345 0.141892,-0.112573 0.817442,-0.69521 1.614689,-1.586515 2.046062,-2.044082 0.01126,-0.01194 0.0224,-0.02399 0.03344,-0.03613 1.393524,-1.534105 2.758314,-3.340395 3.689052,-4.54021 1.5213,-1.96111 2.443774,-3.050911 3.4376,-4.047117 a 2.657645,2.657645 90 0 0 -3.76297,-3.75398 c -1.222789,1.225718 -2.301417,2.515412 -3.874422,4.543175 -1.000788,1.290117 -2.19627,2.870692 -3.407731,4.206676 -0.55605,0.589805 -1.039905,1.132002 -1.5441,1.570658 -0.07122,0.05326 -0.117378,0.08852 -0.140909,0.105314 -0.03123,0.02229 -0.02168,0.0098 0.06053,-0.0319 0.07333,-0.03718 0.249376,-0.117416 0.50698,-0.155964 0.280226,-0.04193 0.609861,-0.02675 0.94245,0.08798 0.203373,0.07016 0.397535,0.164778 0.578102,0.281731 0.09274,0.06007 0.104042,0.09558 0.01506,-0.01135 -0.07746,-0.09308 -0.214431,-0.283297 -0.40844,-0.530756 -2.055439,-2.870612 -3.7518622,-5.728387 -5.1482736,-7.636121 -0.00973,-0.01329 -0.019579,-0.02649 -0.029552,-0.0396 -0.019017,-0.02499 -0.037954,-0.04994 -0.056563,-0.07451 C 7.0245284,42.159315 6.7224915,41.750019 6.3603279,41.32107 5.7531171,40.601887 5.2375234,40.147894 4.7949839,39.819997 a 2.657645,2.657645 90 0 0 -3.1643726,4.27072 z"
       id="path-1-2"
       inkscape:path-effect="#path-effect118;#path-effect120"
       inkscape:original-d="m 3.2127976,41.955357 c 2.1656799,1.438176 7.0663994,10.525759 8.3154764,11.150298 0.616694,0.308347 1.885815,-1.129863 2.078869,-1.322917 2.96145,-2.96145 5.185102,-6.697007 8.126488,-9.638393"
       style="fill:#000000;fill-rule:nonzero;stroke:none;stroke-width:1px;stroke-linecap:butt;stroke-linejoin:miter;stroke-opacity:1" />
  </g>
</svg>
